<svg xmlns="http://www.w3.org/2000/svg" viewBox="0 0 60.0 60.0" ><rect x="0.00" y="0.00" width="10.00" height="10.00" rx="2.50" fill="#ECE6D8"/><rect x="50.00" y="0.00" width="10.00" height="10.00" rx="2.50" fill="#ECE6D8"/><rect x="0.00" y="12.50" width="10.00" height="10.00" rx="2.50" fill="#ECE6D8"/><rect x="12.50" y="12.50" width="10.00" height="10.00" rx="2.50" fill="#ECE6D8"/><rect x="37.50" y="12.50" width="10.00" height="10.00" rx="2.50" fill="#ECE6D8"/><rect x="50.00" y="12.50" width="10.00" height="10.00" rx="2.50" fill="#ECE6D8"/><rect x="0.00" y="25.00" width="10.00" height="10.00" rx="2.50" fill="#ECE6D8"/><rect x="25.00" y="25.00" width="10.00" height="10.00" rx="2.50" fill="#ECE6D8"/><rect x="50.00" y="25.00" width="10.00" height="10.00" rx="2.50" fill="#ECE6D8"/><rect x="0.00" y="37.50" width="10.00" height="10.00" rx="2.50" fill="#ECE6D8"/><rect x="50.00" y="37.50" width="10.00" height="10.00" rx="2.50" fill="#ECE6D8"/><rect x="0.00" y="50.00" width="10.00" height="10.00" rx="2.50" fill="#ECE6D8"/><rect x="50.00" y="50.00" width="10.00" height="10.00" rx="2.50" fill="#ECE6D8"/></svg>