<svg xmlns="http://www.w3.org/2000/svg" viewBox="0 0 2406.90 2615.00" ><rect x="538.45" y="0.00" width="221.67" height="221.67" rx="55.42" fill="#E8B14C"/><rect x="1646.78" y="0.00" width="221.67" height="221.67" rx="55.42" fill="#E8B14C"/><rect x="538.45" y="277.08" width="221.67" height="221.67" rx="55.42" fill="#E8B14C"/><rect x="815.53" y="277.08" width="221.67" height="221.67" rx="55.42" fill="#E8B14C"/><rect x="1369.70" y="277.08" width="221.67" height="221.67" rx="55.42" fill="#E8B14C"/><rect x="1646.78" y="277.08" width="221.67" height="221.67" rx="55.42" fill="#E8B14C"/><rect x="538.45" y="554.17" width="221.67" height="221.67" rx="55.42" fill="#E8B14C"/><rect x="1092.62" y="554.17" width="221.67" height="221.67" rx="55.42" fill="#E8B14C"/><rect x="1646.78" y="554.17" width="221.67" height="221.67" rx="55.42" fill="#E8B14C"/><rect x="538.45" y="831.25" width="221.67" height="221.67" rx="55.42" fill="#E8B14C"/><rect x="1646.78" y="831.25" width="221.67" height="221.67" rx="55.42" fill="#E8B14C"/><rect x="538.45" y="1108.33" width="221.67" height="221.67" rx="55.42" fill="#E8B14C"/><rect x="1646.78" y="1108.33" width="221.67" height="221.67" rx="55.42" fill="#E8B14C"/><path d="M76.299560546875 0V492.500244140625H177.201171875V435.00048828125H193.101318359375Q206.80126953125 460.700439453125 237.8511962890625 480.9503173828125Q268.901123046875 501.2001953125 322.100830078125 501.2001953125Q377.20068359375 501.2001953125 410.77557373046875 478.42535400390625Q444.3504638671875 455.6505126953125 461.00048828125 420.900634765625H476.900634765625Q493.900634765625 455.00048828125 526.6505126953125 478.100341796875Q559.400390625 501.2001953125 619.2001953125 501.2001953125Q666.60009765625 501.2001953125 703.9251098632812 481.3502197265625Q741.2501220703125 461.500244140625 763.2251586914062 423.0501708984375Q785.2001953125 384.60009765625 785.2001953125 328.4498291015625V0H682.298583984375V320.499755859375Q682.298583984375 365.3494873046875 657.6238403320312 389.69921875Q632.9490966796875 414.0489501953125 588.299560546875 414.0489501953125Q540.0499267578125 414.0489501953125 511.12530517578125 383.0491943359375Q482.20068359375 352.0494384765625 482.20068359375 293.699951171875V0H379.299072265625V320.499755859375Q379.299072265625 365.3494873046875 354.62432861328125 389.69921875Q329.9495849609375 414.0489501953125 285.300048828125 414.0489501953125Q237.0504150390625 414.0489501953125 208.12579345703125 383.0491943359375Q179.201171875 352.0494384765625 179.201171875 293.699951171875V0Z" transform="translate(-76.30,2415.00) scale(1,-1)" fill="#17120D"/><path d="M76.299560546875 0V492.500244140625H179.201171875V0Z" transform="translate(760.70,2415.00) scale(1,-1)" fill="#17120D"/><path d="M76.299560546875 0V700H179.201171875V0Z" transform="translate(996.70,2415.00) scale(1,-1)" fill="#17120D"/><path d="M76.299560546875 -200V492.500244140625H177.201171875V422.3509521484375H193.101318359375Q211.501220703125 455.20068359375 250.47601318359375 480.8504638671875Q289.4508056640625 506.500244140625 361.00048828125 506.500244140625Q422.7503662109375 506.500244140625 474.4503173828125 476.6502685546875Q526.1502685546875 446.80029296875 557.3252563476562 390.1502685546875Q588.500244140625 333.500244140625 588.500244140625 253.5501708984375V238.9500732421875Q588.500244140625 159.3499755859375 557.500244140625 102.52496337890625Q526.500244140625 45.699951171875 474.80029296875 15.8499755859375Q423.100341796875 -14 361.00048828125 -14Q313.20068359375 -14 280.2508544921875 -2.10009765625Q247.301025390625 9.7998046875 227.0511474609375 28.57464599609375Q206.80126953125 47.3494873046875 195.101318359375 66.79931640625H179.201171875V-200ZM331.39990234375 76.4013671875Q398.79931640625 76.4013671875 441.8489990234375 119.32598876953125Q484.898681640625 162.2506103515625 484.898681640625 241.60009765625V250.900146484375Q484.898681640625 330.2496337890625 441.52398681640625 373.17425537109375Q398.1492919921875 416.098876953125 331.39990234375 416.098876953125Q265.00048828125 416.098876953125 221.4508056640625 373.17425537109375Q177.901123046875 330.2496337890625 177.901123046875 250.900146484375V241.60009765625Q177.901123046875 162.2506103515625 221.4508056640625 119.32598876953125Q265.00048828125 76.4013671875 331.39990234375 76.4013671875Z" transform="translate(1232.70,2415.00) scale(1,-1)" fill="#17120D"/><path d="M228.5496826171875 -14Q176.2496337890625 -14 134.42462158203125 4.1500244140625Q92.599609375 22.300048828125 68.27459716796875 57.27508544921875Q43.9495849609375 92.2501220703125 43.9495849609375 142.2001953125Q43.9495849609375 192.500244140625 68.27459716796875 226.12530517578125Q92.599609375 259.7503662109375 135.22467041015625 276.72540283203125Q177.8497314453125 293.700439453125 231.7498779296875 293.700439453125H382.4488525390625V325.5501708984375Q382.4488525390625 368.9495849609375 356.2491455078125 395.12432861328125Q330.0494384765625 421.299072265625 276.099853515625 421.299072265625Q223.1502685546875 421.299072265625 195.07562255859375 396.29931640625Q167.0009765625 371.299560546875 157.901123046875 330.6500244140625L62.19970703125 361.9505615234375Q74.19970703125 401.700439453125 100.52471923828125 434.2503662109375Q126.8497314453125 466.80029296875 170.82476806640625 486.6502685546875Q214.7998046875 506.500244140625 277.39990234375 506.500244140625Q373.300048828125 506.500244140625 428.02520751953125 457.8502197265625Q482.7503662109375 409.2001953125 482.7503662109375 318.6500244140625V115.80126953125Q482.7503662109375 85.80126953125 510.7503662109375 85.80126953125H553.2001953125V0H476.19970703125Q441.299560546875 0 419.3994140625 18.17498779296875Q397.499267578125 36.3499755859375 397.499267578125 67.0499267578125V70.1497802734375H381.6490478515625Q374.499267578125 54.6500244140625 358.22442626953125 34.62506103515625Q341.9495849609375 14.60009765625 310.899658203125 0.300048828125Q279.8497314453125 -14 228.5496826171875 -14ZM244.2501220703125 71.201171875Q305.6495361328125 71.201171875 344.0491943359375 106.6507568359375Q382.4488525390625 142.100341796875 382.4488525390625 203.699462890625V214.3994140625H237.9500732421875Q197.00048828125 214.3994140625 171.92584228515625 196.77459716796875Q146.8511962890625 179.1497802734375 146.8511962890625 145.1502685546875Q146.8511962890625 111.1507568359375 172.92584228515625 91.17596435546875Q199.00048828125 71.201171875 244.2501220703125 71.201171875Z" transform="translate(1853.70,2415.00) scale(1,-1)" fill="#17120D"/><rect x="818.99" y="1755.80" width="138.92" height="138.92" rx="34.73" fill="#E8B14C"/></svg>