<svg xmlns="http://www.w3.org/2000/svg" viewBox="0 0 1024.0 1024.0" ><rect x="0" y="0" width="1024.0" height="1024.0" rx="224.0" fill="#17120D"/><rect x="200.00" y="200.00" width="104.00" height="104.00" rx="26.00" fill="#E8B14C"/><rect x="720.00" y="200.00" width="104.00" height="104.00" rx="26.00" fill="#E8B14C"/><rect x="200.00" y="330.00" width="104.00" height="104.00" rx="26.00" fill="#E8B14C"/><rect x="330.00" y="330.00" width="104.00" height="104.00" rx="26.00" fill="#E8B14C"/><rect x="590.00" y="330.00" width="104.00" height="104.00" rx="26.00" fill="#E8B14C"/><rect x="720.00" y="330.00" width="104.00" height="104.00" rx="26.00" fill="#E8B14C"/><rect x="200.00" y="460.00" width="104.00" height="104.00" rx="26.00" fill="#E8B14C"/><rect x="460.00" y="460.00" width="104.00" height="104.00" rx="26.00" fill="#E8B14C"/><rect x="720.00" y="460.00" width="104.00" height="104.00" rx="26.00" fill="#E8B14C"/><rect x="200.00" y="590.00" width="104.00" height="104.00" rx="26.00" fill="#E8B14C"/><rect x="720.00" y="590.00" width="104.00" height="104.00" rx="26.00" fill="#E8B14C"/><rect x="200.00" y="720.00" width="104.00" height="104.00" rx="26.00" fill="#E8B14C"/><rect x="720.00" y="720.00" width="104.00" height="104.00" rx="26.00" fill="#E8B14C"/></svg>